name D:\school\WTK\thesis\model\3dpredictsim\Results\Batchsim_tmt_linear_v2\Pog_s1_tmt_aCst_d05_k1000_ig24_pas.mot
datacolumns 128
datarows 4
range 1.07559739 1.10786531
endheader
time	pelvis_tilt	pelvis_list	pelvis_rotation	pelvis_tx	pelvis_ty	pelvis_tz	hip_flexion_l	hip_adduction_l	hip_rotation_l	hip_flexion_r	hip_adduction_r	hip_rotation_r	knee_angle_l	knee_angle_r	ankle_angle_l	ankle_angle_r	subtalar_angle_l	subtalar_angle_r	tmt_angle_l	tmt_angle_r	mtp_angle_l	mtp_angle_r	lumbar_extension	lumbar_bending	lumbar_rotation	arm_flex_l	arm_add_l	arm_rot_l	arm_flex_r	arm_add_r	arm_rot_r	elbow_flex_l	elbow_flex_r	pro_sup_l	pro_sup_r	glut_med1_l/activation	glut_med2_l/activation	glut_med3_l/activation	glut_min1_l/activation	glut_min2_l/activation	glut_min3_l/activation	semimem_l/activation	semiten_l/activation	bifemlh_l/activation	bifemsh_l/activation	sar_l/activation	add_long_l/activation	add_brev_l/activation	add_mag1_l/activation	add_mag2_l/activation	add_mag3_l/activation	tfl_l/activation	pect_l/activation	grac_l/activation	glut_max1_l/activation	glut_max2_l/activation	glut_max3_l/activation	iliacus_l/activation	psoas_l/activation	quad_fem_l/activation	gem_l/activation	peri_l/activation	rect_fem_l/activation	vas_med_l/activation	vas_int_l/activation	vas_lat_l/activation	med_gas_l/activation	lat_gas_l/activation	soleus_l/activation	tib_post_l/activation	flex_dig_l/activation	flex_hal_l/activation	tib_ant_l/activation	per_brev_l/activation	per_long_l/activation	per_tert_l/activation	ext_dig_l/activation	ext_hal_l/activation	ercspn_l/activation	intobl_l/activation	extobl_l/activation	glut_med1_r/activation	glut_med2_r/activation	glut_med3_r/activation	glut_min1_r/activation	glut_min2_r/activation	glut_min3_r/activation	semimem_r/activation	semiten_r/activation	bifemlh_r/activation	bifemsh_r/activation	sar_r/activation	add_long_r/activation	add_brev_r/activation	add_mag1_r/activation	add_mag2_r/activation	add_mag3_r/activation	tfl_r/activation	pect_r/activation	grac_r/activation	glut_max1_r/activation	glut_max2_r/activation	glut_max3_r/activation	iliacus_r/activation	psoas_r/activation	quad_fem_r/activation	gem_r/activation	peri_r/activation	rect_fem_r/activation	vas_med_r/activation	vas_int_r/activation	vas_lat_r/activation	med_gas_r/activation	lat_gas_r/activation	soleus_r/activation	tib_post_r/activation	flex_dig_r/activation	flex_hal_r/activation	tib_ant_r/activation	per_brev_r/activation	per_long_r/activation	per_tert_r/activation	ext_dig_r/activation	ext_hal_r/activation	ercspn_r/activation	intobl_r/activation	extobl_r/activation	
          1.07559739	         -2.92022516	          0.79643438	          4.98958067	          1.34449673	          0.87184580	         -0.00233011	        -18.14137702	          1.20705968	          5.91057259	         26.28678272	         -0.26532031	         -3.37262605	         -5.06684885	         -7.21605607	         -9.19608855	          5.68099952	          6.68142064	          3.61753911	          1.10174816	          0.03424899	         27.49313359	         -0.10563038	          0.56889390	         -3.10828579	         -1.64327895	          3.87690609	        -13.47047435	         12.56693226	         -8.62894837	        -13.45117885	         13.08197933	         25.71701579	         16.61839527	         86.51662706	         86.51662706	          0.26609363	          0.08722162	          0.07555967	          0.25514507	          0.15472072	          0.08893463	          0.05000122	          0.05000012	          0.05000010	          0.05000011	          0.09669848	          0.05624189	          0.05000012	          0.05000023	          0.05000083	          0.05000071	          0.22613491	          0.05000050	          0.05000027	          0.05000406	          0.05000225	          0.05000138	          0.36626504	          0.66304321	          0.05000020	          0.05000277	          0.05896326	          0.31444249	          0.05589835	          0.06077123	          0.05829409	          0.19830137	          0.28667190	          0.23651064	          0.23538538	          0.21316938	          0.29321856	          0.05000001	          0.08875383	          0.14665924	          0.05000012	          0.05000003	          0.05000009	          0.05000000	          0.05000001	          0.05000001	          0.06513346	          0.06813196	          0.05000158	          0.05000029	          0.05000048	          0.05002728	          0.06953344	          0.06953250	          0.13241556	          0.05000141	          0.05000031	          0.05000057	          0.05862245	          0.08928247	          0.13072081	          0.14527108	          0.05000127	          0.05000065	          0.05896528	          0.05896403	          0.11306497	          0.16296509	          0.05000004	          0.05000006	          0.06581144	          0.05896345	          0.05000288	          0.05000020	          0.05000071	          0.05000087	          0.05000053	          0.05000017	          0.05000083	          0.05276474	          0.05896201	          0.05896338	          0.05896334	          0.46177080	          0.30804248	          0.19665966	          0.18108511	          0.47069717	          0.25329594	          0.05093528	          0.14329162	          0.14243224	
          1.08635336	         -2.90439908	          0.85663544	          5.14944757	          1.36130451	          0.87046409	         -0.00219002	        -18.00018000	          1.06786608	          5.68507229	         25.86160035	         -0.12600576	         -3.14819414	         -7.11380246	         -7.12335775	         -9.89303581	          5.18196257	          7.76927951	          3.15274435	          1.02221089	          0.03638275	         28.37229400	         -0.08149546	          0.78171753	         -2.94017516	         -1.70330410	          3.67840861	        -13.49777789	         12.87914816	         -9.81457134	        -13.44970862	         12.91013906	         26.56280974	         16.63869183	         86.51662706	         86.51662706	          0.22564345	          0.07396264	          0.06407351	          0.21635925	          0.13120087	          0.07541525	          0.05000069	          0.05000007	          0.05000006	          0.05000012	          0.08199902	          0.13633796	          0.14083263	          0.05000796	          0.05000174	          0.05000021	          0.19175904	          0.11834014	          0.05896049	          0.05000085	          0.05000047	          0.05000050	          0.31058727	          0.60334782	          0.06953320	          0.05000052	          0.05000022	          0.26664251	          0.12641569	          0.15759525	          0.09538845	          0.16815658	          0.24309347	          0.21658910	          0.19960377	          0.18076484	          0.24864514	          0.05000000	          0.07526196	          0.14102946	          0.05000005	          0.05000001	          0.05000007	          0.05000007	          0.05020999	          0.05358774	          0.09563439	          0.05777507	          0.28120807	          0.05896340	          0.05896336	          0.05000235	          0.05896336	          0.05896256	          0.11697039	          0.05000018	          0.05000104	          0.09668930	          0.11618607	          0.18336263	          0.19888583	          0.17739857	          0.05000008	          0.06954245	          0.05000699	          0.05000069	          0.09587749	          0.21578053	          0.05896330	          0.05000146	          0.05580714	          0.05000035	          0.12132656	          0.06441018	          0.21662921	          0.22792816	          0.18169113	          0.05000000	          0.05000000	          0.05000000	          0.05000000	          0.05000010	          0.05000008	          0.61953361	          0.32369740	          0.16701081	          0.52307267	          0.56451182	          0.37147355	          0.05000002	          0.12150914	          0.12078039	
          1.09710934	         -2.88153472	          0.90027367	          5.28316596	          1.37839744	          0.86899488	         -0.00204816	        -17.74744552	          0.91934915	          5.45317219	         25.35452797	          0.00542355	         -2.88711681	         -9.37341013	         -7.65906733	        -10.59482562	          4.45039385	          8.85161548	          2.68539585	          0.90465332	          0.03758383	         28.88486597	         -0.04475520	          1.01581534	         -2.73950335	         -1.75552661	          3.40805371	        -13.53173449	         13.15512018	        -11.01422562	        -13.45562550	         12.77623773	         27.40267805	         16.66862182	         86.51662706	         86.51662706	          0.19134228	          0.06271922	          0.05896325	          0.18346946	          0.11125639	          0.06395103	          0.05000098	          0.05000010	          0.05000016	          0.05000003	          0.06953401	          0.18225550	          0.28935046	          0.11019043	          0.05896380	          0.11477965	          0.16260881	          0.10035082	          0.05000025	          0.05001727	          0.05893250	          0.05896290	          0.26337334	          0.52237637	          0.05896327	          0.05896323	          0.05000061	          0.22610884	          0.13447491	          0.13447509	          0.13447479	          0.14259425	          0.20613961	          0.18366431	          0.16926102	          0.15328596	          0.21084740	          0.05000001	          0.06382106	          0.14683428	          0.05000004	          0.05000004	          0.05000007	          0.05172286	          0.06601751	          0.06483720	          0.15827987	          0.05040953	          0.23983419	          0.05000011	          0.05000011	          0.05000023	          0.05000006	          0.05000005	          0.09918915	          0.05000002	          0.05000010	          0.08199111	          0.09852408	          0.21429344	          0.23027250	          0.17616345	          0.05000369	          0.05897123	          0.05000025	          0.13182305	          0.15002053	          0.19849122	          0.05000004	          0.05000008	          0.18520507	          0.05888905	          0.10288314	          0.06953313	          0.22483143	          0.24466289	          0.17908772	          0.05000014	          0.05000089	          0.05000004	          0.05837611	          0.05896471	          0.05896363	          0.52535518	          0.34898195	          0.18249187	          0.44355779	          0.47869758	          0.31500400	          0.05000000	          0.10303792	          0.10241996	
          1.10786531	         -2.85397130	          0.92719898	          5.39025714	          1.39559589	          0.86741547	         -0.00191541	        -17.38667372	          0.76706088	          5.21616487	         24.74240457	          0.11137160	         -2.59887323	        -11.81953605	         -8.55473473	        -11.22552707	          3.87208396	          9.89349995	          2.18164174	          0.74315166	         -0.01527087	         28.82624148	         -0.19184074	          1.25382749	         -2.50915571	         -1.79722131	          3.09413255	        -13.56989539	         13.39545917	        -12.18918094	        -13.47347182	         12.72158402	         28.23525614	         16.67911559	         86.51662706	         86.51662706	          0.19217298	          0.05318496	          0.05000001	          0.15558517	          0.09434377	          0.05422953	          0.06813607	          0.05000014	          0.05000010	          0.05000013	          0.05896429	          0.18881932	          0.28357695	          0.09343996	          0.05000203	          0.09733157	          0.13788988	          0.08509700	          0.05000049	          0.05000037	          0.05000025	          0.05000032	          0.22333665	          0.48153567	          0.05000004	          0.05000012	          0.05000003	          0.19173690	          0.11403271	          0.11403286	          0.11403262	          0.12091778	          0.17480330	          0.15574457	          0.14353082	          0.12998426	          0.17879548	          0.05000188	          0.11204664	          0.12451336	          0.08457504	          0.15486956	          0.05002427	          0.06939107	          0.05598186	          0.05498100	          0.26801720	          0.25257387	          0.39457658	          0.27214568	          0.19866361	          0.22754908	          0.06953333	          0.08802989	          0.09040412	          0.06953475	          0.05896337	          0.06952726	          0.08354696	          0.18171766	          0.19526775	          0.18614934	          0.05000014	          0.05000982	          0.07030983	          0.19516298	          0.19265127	          0.20612903	          0.05001108	          0.05000031	          0.15705114	          0.05003155	          0.20960036	          0.05896305	          0.19065369	          0.20747047	          0.15186371	          0.05000009	          0.05000013	          0.05000002	          0.05000000	          0.05000125	          0.05000035	          0.57752254	          0.29593149	          0.15475038	          0.66926854	          0.58559449	          0.35442672	          0.05000002	          0.08737461	          0.08685058	
